HIERARCHY
ROOT root
{
	OFFSET	0	13.1	24.9
	CHANNELS 6  Xposition Yposition Zposition Xrotation Yrotation Zrotation
	JOINT spine_1
	{
		OFFSET	0	9.99999	0
		CHANNELS 3  Xrotation Yrotation Zrotation
		JOINT spine_2
		{
			OFFSET	0	112	-10
			CHANNELS 3  Xrotation Yrotation Zrotation
			JOINT spine_3
			{
				OFFSET	0	206.5	19.3
				CHANNELS 3  Xrotation Yrotation Zrotation
				JOINT spine_4
				{
					OFFSET	0	110.4	14.6
					CHANNELS 3  Xrotation Yrotation Zrotation
					JOINT neck_1
					{
						OFFSET	0	71.8	-50.3
						CHANNELS 3  Xrotation Yrotation Zrotation
						JOINT neck_2
						{
							OFFSET	0	86.2	-25.8
							CHANNELS 3  Xrotation Yrotation Zrotation
							JOINT head_ee
							{
								OFFSET	0	179.8	-8.7
								CHANNELS 3  Xrotation Yrotation Zrotation
								End Site
								{
									OFFSET	1	0	0
								}
							}
						}
					}
					JOINT left_clavicle
					{
						OFFSET	-43.2	22.4	-70.8
						CHANNELS 3  Xrotation Yrotation Zrotation
						JOINT left_shoulder
						{
							OFFSET	-93.9	-5.79999	48.7
							CHANNELS 3  Xrotation Yrotation Zrotation
							JOINT left_elbow
							{
								OFFSET	-291.4	-30.8	15.2
								CHANNELS 3  Xrotation Yrotation Zrotation
								JOINT left_lowarm_twist
								{
									OFFSET	-110.7	-3.89999	13.6
									CHANNELS 3  Xrotation Yrotation Zrotation
									JOINT left_hand
									{
										OFFSET	-110.7	-3.89999	13.6
										CHANNELS 3  Xrotation Yrotation Zrotation
										JOINT left_ee
										{
											OFFSET	-80.8	-5.10001	12.1
											CHANNELS 3  Xrotation Yrotation Zrotation
											End Site
											{
												OFFSET	1	0	0
											}
										}
									}
								}
							}
						}
					}
					JOINT right_clavicle
					{
						OFFSET	43.2	22.4	-70.8
						CHANNELS 3  Xrotation Yrotation Zrotation
						JOINT right_shoulder
						{
							OFFSET	93.9	-5.79999	48.7
							CHANNELS 3  Xrotation Yrotation Zrotation
							JOINT right_elbow
							{
								OFFSET	291.4	-30.8	15.2
								CHANNELS 3  Xrotation Yrotation Zrotation
								JOINT right_lowarm_twist
								{
									OFFSET	110.7	-3.89999	13.6
									CHANNELS 3  Xrotation Yrotation Zrotation
									JOINT right_hand
									{
										OFFSET	110.7	-3.89999	13.6
										CHANNELS 3  Xrotation Yrotation Zrotation
										JOINT right_ee
										{
											OFFSET	80.8	-5.10001	12.1
											CHANNELS 3  Xrotation Yrotation Zrotation
											End Site
											{
												OFFSET	1	0	0
											}
										}
									}
								}
							}
						}
					}
				}
			}
		}
	}
	JOINT left_hip
	{
		OFFSET	-82.8	-127.5	0.300001
		CHANNELS 3  Xrotation Yrotation Zrotation
		JOINT left_knee
		{
			OFFSET	-28.2	-396.7	2.2
			CHANNELS 3  Xrotation Yrotation Zrotation
			JOINT left_ankle
			{
				OFFSET	-11.7	-411.3	35.4
				CHANNELS 3  Xrotation Yrotation Zrotation
				JOINT left_toes
				{
					OFFSET	0	-60	-88.6
					CHANNELS 3  Xrotation Yrotation Zrotation
					JOINT left_foot_ee
					{
						OFFSET	-22.5	-16.5	-42.2
						CHANNELS 3  Xrotation Yrotation Zrotation
						End Site
						{
							OFFSET	1	0	0
						}
					}
				}
			}
		}
	}
	JOINT right_hip
	{
		OFFSET	82.8	-127.5	0.300001
		CHANNELS 3  Xrotation Yrotation Zrotation
		JOINT right_knee
		{
			OFFSET	28.2	-396.7	2.2
			CHANNELS 3  Xrotation Yrotation Zrotation
			JOINT right_ankle
			{
				OFFSET	11.7	-411.3	35.4
				CHANNELS 3  Xrotation Yrotation Zrotation
				JOINT right_toes
				{
					OFFSET	0	-60	-88.6
					CHANNELS 3  Xrotation Yrotation Zrotation
					JOINT right_foot_ee
					{
						OFFSET	22.5	-16.5	-42.2
						CHANNELS 3  Xrotation Yrotation Zrotation
						End Site
						{
							OFFSET	1	0	0
						}
					}
				}
			}
		}
	}
}
MOTION
Frames: 13
Frame Time: 0.02
2559.01601436 742.23 -1523.36418614 -157.069408758 71.5603577583 158.121402537 3.82882 0.0152178 -0.00065278 3.82882 0.0152285 0.000316889 3.82882 0.015023 0.00251291 3.82882 0.0152314 0.00010876 -12.8275 17.3628 -4.22936 -13.7176 35.6428 1.51987 -0.0 0.0 -0.0 0.292784 20.813 2.84542 -25.7539 -37.5959 62.5802 0.200293 -5.66645 0.00991243 -55.7082 -4.75435 4.94765 2.19863 6.91402 17.4931 -0.0 0.0 -0.0 12.038 -24.0781 -19.8081 -4.65725 19.8407 -65.4195 1.22533 31.2561 -0.342777 -55.1159 4.68236 -4.92336 6.16259 -32.8314 -52.9496 0.0 0.0 0.0 16.7158 -0.550206 -15.6521 -29.7469 0.0536773 4.51379 30.6395 -10.0401 -4.11667 29.4626 -0.0 -0.0 -0.0 0.0 -0.0 17.4221 12.7057 -8.81043 0.279633 0.0116158 0.0413396 26.0726 -27.2116 3.69023 -25.5258 0.0 0.0 0.0 0.0 0.0 
2546.07379852 742.898 -1513.10893938 -160.031642146 67.2344062898 161.467974103 4.26617 -0.130103 0.245774 4.26619 -0.145478 0.236998 4.26557 -0.17655 0.214854 4.26554 -0.140402 0.24004 -13.7129 16.2719 -5.2674 -14.6183 34.2109 0.442643 -0.0 0.0 -0.0 0.165041 18.8925 2.45492 -28.3155 -34.8247 63.656 0.189845 -5.37264 0.00890751 -56.4071 -4.83961 4.97535 2.26734 7.86881 18.3078 -0.0 0.0 -0.0 11.9892 -24.2446 -19.6899 -3.77446 20.3279 -66.183 1.45486 35.7779 -0.46962 -53.9091 4.53645 -4.87157 6.28082 -33.0506 -54.0955 0.0 0.0 0.0 17.3284 2.73394 -15.576 -20.3467 0.291356 3.09239 26.6936 -10.3815 -3.68207 27.105 -0.0 -0.0 -0.0 0.0 -0.0 16.5269 12.9662 -9.0687 1.31583 0.0564168 0.194032 25.9726 -27.2946 3.6798 -26.5637 0.0 0.0 0.0 0.0 0.0 
2525.18958385 744.117 -1488.05958504 -163.194470905 63.055504079 164.762030516 4.4797 0.00847613 0.239642 4.47973 -0.00679003 0.239695 4.47968 -0.0386508 0.236656 4.4796 -0.000790443 0.23979 -15.8884 16.338 -3.95186 -17.1136 33.5502 2.46352 -0.0 0.0 -0.0 0.067343 16.7301 2.06766 -31.061 -32.8447 64.4425 0.213852 -6.04729 0.0112961 -55.2723 -4.70134 4.92984 2.89622 8.73662 22.9901 -0.0 0.0 -0.0 11.6995 -25.3809 -18.9599 -5.44035 19.8135 -65.8416 1.67731 39.7196 -0.605884 -53.9872 4.54587 -4.87502 6.23339 -31.7991 -53.8506 0.0 0.0 0.0 18.3158 5.0844 -14.9319 -18.595 0.309713 2.82424 22.8094 -9.30749 -3.19888 24.1474 -0.0 -0.0 -0.0 0.0 -0.0 15.0022 13.2168 -9.43256 1.05463 0.0448625 0.155617 27.6421 -27.3736 3.88727 -29.2203 0.0 0.0 0.0 0.0 0.0 
2512.64076084 745.174 -1468.8539115 -165.510720853 59.9346428432 167.06237592 4.76004 0.113551 0.257254 4.76007 0.0969516 0.263958 4.76049 0.0622814 0.274216 4.7604 0.104807 0.260938 -16.9501 15.7218 -2.43407 -18.1698 31.5211 3.93335 -0.0 0.0 -0.0 -0.0371586 15.192 1.72768 -32.5385 -31.1632 65.898 0.211755 -5.98842 0.0110761 -54.895 -4.65556 4.91411 3.20282 8.45503 25.0845 -0.0 0.0 -0.0 11.7003 -25.7569 -18.865 -5.64225 19.6569 -65.7087 1.83832 42.3184 -0.711582 -53.7728 4.52005 -4.86553 6.20414 -30.9169 -53.6887 0.0 0.0 0.0 18.9715 6.8286 -14.8204 -16.4561 0.321 2.49629 17.6551 -9.50788 -2.54455 20.7107 -0.0 -0.0 -0.0 0.0 -0.0 13.5723 12.1751 -9.26729 1.78085 0.0774201 0.262292 28.6558 -27.3674 4.00962 -30.9069 0.0 0.0 0.0 0.0 0.0 
2452.61475537 731.413 -1449.97309901 -160.086390957 57.7605541878 163.307599441 5.66854 0.352506 0.731233 5.66878 0.305262 0.75218 5.67251 0.218717 0.781742 5.67182 0.339431 0.737392 -11.747 10.4255 -0.485764 -11.9581 20.0707 2.48228 -0.0 0.0 -0.0 0.811603 11.0309 2.68367 -34.2626 -27.3064 66.1757 0.60446 -16.6695 0.0885565 -42.4314 -3.21338 4.22976 6.66058 -0.147008 51.1793 -0.0 0.0 -0.0 11.4039 -25.7626 -18.4264 -8.9828 14.7407 -65.8119 1.98047 44.4475 -0.809241 -64.7862 5.88328 -5.22508 6.89469 -34.0594 -60.8116 0.0 0.0 0.0 21.3296 12.7193 -13.3985 1.54856 -0.066859 -0.228215 -1.07628 -18.264 0.176779 4.98122 -0.0 -0.0 -0.0 0.0 -0.0 12.0343 8.34124 -10.3574 1.40222 0.0602763 0.206725 41.5365 -24.1297 5.28435 -40.1898 0.0 0.0 0.0 0.0 0.0 
2434.37541743 731.847 -1452.25399118 -159.501056278 57.4342118627 162.588107821 5.75756 0.552839 0.807724 5.75779 0.500323 0.841263 5.76484 0.403984 0.891538 5.76414 0.539711 0.816554 -9.81424 11.2527 1.45705 -9.93705 20.1962 4.23262 -0.0 0.0 -0.0 0.109751 11.8435 1.58406 -32.9319 -30.2764 63.0583 0.925921 -24.6393 0.202221 -37.5708 -2.6966 3.88079 7.45918 -2.9043 58.7497 -0.0 0.0 -0.0 11.3711 -24.8549 -18.5989 -13.3779 13.2587 -65.1693 1.48384 36.3155 -0.486674 -66.5357 6.10492 -5.25773 6.92394 -33.966 -61.2294 0.0 0.0 0.0 21.7158 12.84 -13.9094 0.0878119 -0.00362574 -0.0129877 2.8868 -21.0995 -0.481297 9.23605 -0.0 -0.0 -0.0 0.0 -0.0 12.1002 7.87108 -10.4858 -1.78133 -0.0692365 -0.264594 42.2904 -23.576 5.33539 -39.6033 0.0 0.0 0.0 0.0 0.0 
2425.76274414 732.324 -1449.72435065 -160.212222916 56.9927979778 163.252675009 5.82173 0.617574 0.767907 5.82188 0.56746 0.805646 5.82964 0.475638 0.863042 5.82911 0.605966 0.7771 -9.33198 13.1203 2.28246 -9.46209 23.0999 5.42039 -0.0 0.0 -0.0 -0.429652 12.2767 0.732827 -31.3448 -32.6331 62.738 1.10581 -28.7124 0.283029 -35.0315 -2.43893 3.68147 7.82361 -4.07356 62.7557 -0.0 0.0 -0.0 11.3317 -24.514 -18.6209 -14.7957 12.8288 -64.8804 1.23976 31.5544 -0.350296 -66.6502 6.11947 -5.25964 6.92652 -33.2192 -61.5424 0.0 0.0 0.0 21.9252 12.5802 -13.9757 -1.13892 0.0452175 0.168931 3.45676 -22.8234 -0.585436 11.0006 -0.0 -0.0 -0.0 0.0 -0.0 11.6412 8.03814 -10.1494 -3.85827 -0.139517 -0.575578 42.2811 -23.3234 5.32664 -39.3728 0.0 0.0 0.0 0.0 0.0 
2425.63590113 732.324 -1451.7927405 -160.046023852 57.2898177792 163.054822353 5.82173 0.617574 0.767907 5.82188 0.56746 0.805646 5.82964 0.475638 0.863042 5.82911 0.605966 0.7771 -9.33198 13.1203 2.28246 -9.46209 23.0999 5.42039 -0.0 0.0 -0.0 -0.429652 12.2767 0.732827 -31.3448 -32.6331 62.738 1.10581 -28.7124 0.283029 -35.0315 -2.43893 3.68147 7.82361 -4.07356 62.7557 -0.0 0.0 -0.0 11.3317 -24.514 -18.6209 -14.7957 12.8288 -64.8804 1.23976 31.5544 -0.350296 -66.6502 6.11947 -5.25964 6.92652 -33.2192 -61.5424 0.0 0.0 0.0 21.9252 12.5802 -13.9757 -1.13892 0.0452175 0.168931 3.45676 -22.8234 -0.585436 11.0006 -0.0 -0.0 -0.0 0.0 -0.0 11.6412 8.03814 -10.1494 -3.85827 -0.139517 -0.575578 42.2811 -23.3234 5.32664 -39.3728 0.0 0.0 0.0 0.0 0.0 
2425.57828519 732.324 -1452.79979202 -159.963948396 57.4342809468 162.957356685 5.82173 0.617574 0.767907 5.82188 0.56746 0.805646 5.82964 0.475638 0.863042 5.82911 0.605966 0.7771 -9.33198 13.1203 2.28246 -9.46209 23.0999 5.42039 -0.0 0.0 -0.0 -0.429652 12.2767 0.732827 -31.3448 -32.6331 62.738 1.10581 -28.7124 0.283029 -35.0315 -2.43893 3.68147 7.82361 -4.07356 62.7557 -0.0 0.0 -0.0 11.3317 -24.514 -18.6209 -14.7957 12.8288 -64.8804 1.23976 31.5544 -0.350296 -66.6502 6.11947 -5.25964 6.92652 -33.2192 -61.5424 0.0 0.0 0.0 21.9252 12.5802 -13.9757 -1.13892 0.0452175 0.168931 3.45676 -22.8234 -0.585436 11.0006 -0.0 -0.0 -0.0 0.0 -0.0 11.6412 8.03814 -10.1494 -3.85827 -0.139517 -0.575578 42.2811 -23.3234 5.32664 -39.3728 0.0 0.0 0.0 0.0 0.0 
2425.33368261 732.324 -1457.76809691 -159.547540366 58.145566824 162.465216801 5.82173 0.617574 0.767907 5.82188 0.56746 0.805646 5.82964 0.475638 0.863042 5.82911 0.605966 0.7771 -9.33198 13.1203 2.28246 -9.46209 23.0999 5.42039 -0.0 0.0 -0.0 -0.429652 12.2767 0.732827 -31.3448 -32.6331 62.738 1.10581 -28.7124 0.283029 -35.0315 -2.43893 3.68147 7.82361 -4.07356 62.7557 -0.0 0.0 -0.0 11.3317 -24.514 -18.6209 -14.7957 12.8288 -64.8804 1.23976 31.5544 -0.350296 -66.6502 6.11947 -5.25964 6.92652 -33.2192 -61.5424 0.0 0.0 0.0 21.9252 12.5802 -13.9757 -1.13892 0.0452175 0.168931 3.45676 -22.8234 -0.585436 11.0006 -0.0 -0.0 -0.0 0.0 -0.0 11.6412 8.03814 -10.1494 -3.85827 -0.139517 -0.575578 42.2811 -23.3234 5.32664 -39.3728 0.0 0.0 0.0 0.0 0.0 
2425.27050121 732.324 -1459.32720787 -159.41279577 58.3682879375 162.30677159 5.82173 0.617574 0.767907 5.82188 0.56746 0.805646 5.82964 0.475638 0.863042 5.82911 0.605966 0.7771 -9.33198 13.1203 2.28246 -9.46209 23.0999 5.42039 -0.0 0.0 -0.0 -0.429652 12.2767 0.732827 -31.3448 -32.6331 62.738 1.10581 -28.7124 0.283029 -35.0315 -2.43893 3.68147 7.82361 -4.07356 62.7557 -0.0 0.0 -0.0 11.3317 -24.514 -18.6209 -14.7957 12.8288 -64.8804 1.23976 31.5544 -0.350296 -66.6502 6.11947 -5.25964 6.92652 -33.2192 -61.5424 0.0 0.0 0.0 21.9252 12.5802 -13.9757 -1.13892 0.0452175 0.168931 3.45676 -22.8234 -0.585436 11.0006 -0.0 -0.0 -0.0 0.0 -0.0 11.6412 8.03814 -10.1494 -3.85827 -0.139517 -0.575578 42.2811 -23.3234 5.32664 -39.3728 0.0 0.0 0.0 0.0 0.0 
2425.50868016 732.324 -1454.08521782 -159.858063374 57.6185357929 162.831846993 5.82173 0.617574 0.767907 5.82188 0.56746 0.805646 5.82964 0.475638 0.863042 5.82911 0.605966 0.7771 -9.33198 13.1203 2.28246 -9.46209 23.0999 5.42039 -0.0 0.0 -0.0 -0.429652 12.2767 0.732827 -31.3448 -32.6331 62.738 1.10581 -28.7124 0.283029 -35.0315 -2.43893 3.68147 7.82361 -4.07356 62.7557 -0.0 0.0 -0.0 11.3317 -24.514 -18.6209 -14.7957 12.8288 -64.8804 1.23976 31.5544 -0.350296 -66.6502 6.11947 -5.25964 6.92652 -33.2192 -61.5424 0.0 0.0 0.0 21.9252 12.5802 -13.9757 -1.13892 0.0452175 0.168931 3.45676 -22.8234 -0.585436 11.0006 -0.0 -0.0 -0.0 0.0 -0.0 11.6412 8.03814 -10.1494 -3.85827 -0.139517 -0.575578 42.2811 -23.3234 5.32664 -39.3728 0.0 0.0 0.0 0.0 0.0 
2425.60980706 732.324 -1452.24297438 -160.009424128 57.3544166048 163.011340257 5.82173 0.617574 0.767907 5.82188 0.56746 0.805646 5.82964 0.475638 0.863042 5.82911 0.605966 0.7771 -9.33198 13.1203 2.28246 -9.46209 23.0999 5.42039 -0.0 0.0 -0.0 -0.429652 12.2767 0.732827 -31.3448 -32.6331 62.738 1.10581 -28.7124 0.283029 -35.0315 -2.43893 3.68147 7.82361 -4.07356 62.7557 -0.0 0.0 -0.0 11.3317 -24.514 -18.6209 -14.7957 12.8288 -64.8804 1.23976 31.5544 -0.350296 -66.6502 6.11947 -5.25964 6.92652 -33.2192 -61.5424 0.0 0.0 0.0 21.9252 12.5802 -13.9757 -1.13892 0.0452175 0.168931 3.45676 -22.8234 -0.585436 11.0006 -0.0 -0.0 -0.0 0.0 -0.0 11.6412 8.03814 -10.1494 -3.85827 -0.139517 -0.575578 42.2811 -23.3234 5.32664 -39.3728 0.0 0.0 0.0 0.0 0.0 
